<?xml version="1.0" encoding="utf-8"?>
<!-- Generator: Adobe Illustrator 13.0.0, SVG Export Plug-In . SVG Version: 6.00 Build 14948)  -->
<!DOCTYPE svg PUBLIC "-//W3C//DTD SVG 1.1//EN" "http://www.w3.org/Graphics/SVG/1.1/DTD/svg11.dtd">
<svg version="1.1" id="Layer_1" xmlns="http://www.w3.org/2000/svg" xmlns:xlink="http://www.w3.org/1999/xlink" x="0px" y="0px"
	 width="816.91px" height="162.438px" viewBox="0 0 816.91 162.438" enable-background="new 0 0 816.91 162.438"
	 xml:space="preserve">
<g>
	<defs>
		<rect id="SVGID_1_" y="0" width="816.91" height="162.437"/>
	</defs>
	<clipPath id="SVGID_2_">
		<use xlink:href="#SVGID_1_"  overflow="visible"/>
	</clipPath>
	<path clip-path="url(#SVGID_2_)" fill="#D74D48" d="M212.245,94.54c26.003-39.006,13.724-66.093,13.724-66.093
		c-4.695-15.169-24.92-32.866-56.703-27.449c-31.782,5.417-36.838,35.033-36.838,35.033c-11.557-10.474-42.454-10.842-56.539,15.884
		c0,0-10.638,22.038,0.92,45.153l1.083,2.526c17.336,34.312,57.425,50.564,57.425,50.564c-66.093,24.92-85.235-16.975-85.235-16.975
		l-5.056,1.083c9.752,23.837,41.895,27.447,41.895,27.447c30.699,3.975,55.619-9.751,55.619-9.751
		c40.789,13.229,68.418-9.863,68.418-9.863l-2.844-2.776c-31.421,19.863-58.712,9.751-58.712,9.751
		C194.186,126.683,212.245,94.54,212.245,94.54 M134.595,45.06c0,0,6.501,5.778,6.862,18.059c0,0,0,4.694-0.723,6.861
		c0,0-1.083,6.14-5.417-1.083C135.316,68.897,132.065,58.062,134.595,45.06 M142.54,147.27c0,0-49.479-18.78-63.203-56.342
		c0,0-7.798-18,0.176-35.361c2.824-6.15,7.216-12.522,14.992-17.369c0,0,7.69-4.904,18.826-4.121
		c5.15,0.362,11.48,1.414,17.291,5.752c0,0-3.612,14.982,0,28.707c0,0,2.528,9.029,10.112,7.945c0,0,8.668-2.528,3.973-20.586
		c0,0-1.806-9.751-8.307-16.975c0,0,4.334-35.394,46.591-33.949c0,0,26.725,0.722,36.838,23.114c0,0,11.557,17.698-5.779,53.091
		C214.05,81.176,192.38,124.516,142.54,147.27"/>
	<path clip-path="url(#SVGID_2_)" fill="#06A2F5" d="M236.456,125.566c0,6.173-5.004,11.177-11.177,11.177
		c-6.173,0-11.177-5.004-11.177-11.177c0-6.174,5.004-11.179,11.177-11.179C231.452,114.388,236.456,119.393,236.456,125.566"/>
	<path clip-path="url(#SVGID_2_)" fill="#06A2F5" d="M225.467,106.369c-10.706,0-19.385,8.68-19.385,19.386
		s8.679,19.384,19.385,19.384s19.385-8.678,19.385-19.384S236.173,106.369,225.467,106.369 M225.467,140.035
		c-7.887,0-14.28-6.395-14.28-14.28c0-7.889,6.393-14.282,14.28-14.282s14.281,6.394,14.281,14.282
		C239.749,133.641,233.354,140.035,225.467,140.035"/>
	<polygon clip-path="url(#SVGID_2_)" fill="#D74D48" points="18.28,88.325 30.989,85.12 34.157,88.979 36.888,74.924 43.589,81.952 
		52.183,79.767 52.948,82.571 42.715,85.157 38.636,81.006 35.759,95.098 30.042,88.252 19.081,91.129 	"/>
	<path clip-path="url(#SVGID_2_)" fill="#25A6E8" d="M71.646,118.057L52.871,42.731c-0.995-3.991-5.037-6.42-9.028-5.426L4.63,47.08
		c-3.272,0.815-5.263,4.13-4.448,7.401l19.338,77.579c0.924,3.709,4.681,5.968,8.39,5.042l37.98-9.467
		C70.125,126.58,72.701,122.292,71.646,118.057 M21.275,51.206l10.912-2.721c1.074-0.268,2.161,0.386,2.429,1.46
		c0.268,1.074-0.386,2.161-1.46,2.429l-10.912,2.72c-1.074,0.268-2.162-0.385-2.429-1.46C19.547,52.56,20.2,51.473,21.275,51.206
		 M45.005,124.581c-2.246,0.337-4.314-1.044-4.62-3.084c-0.305-2.04,1.268-3.967,3.514-4.303c2.246-0.337,4.314,1.044,4.62,3.084
		C48.824,122.318,47.251,124.245,45.005,124.581 M23.733,118.859L10.49,65.731l37.955-9.461l13.244,53.128L23.733,118.859z"/>
	<path clip-path="url(#SVGID_2_)" fill="#D74D48" d="M339.53,111.575h-12.47l-3.612-10.835h-21.758l-3.698,10.835h-12.47
		l22.274-61.231h9.374L339.53,111.575z M320.266,90.679l-7.482-22.274l-7.74,22.274H320.266z"/>
	<path clip-path="url(#SVGID_2_)" fill="#D74D48" d="M379.604,111.576h-10.922v-4.128c-2.924,3.096-6.652,4.645-11.18,4.645
		c-4.416,0-7.941-1.319-10.578-3.956c-3.04-3.039-4.558-7.281-4.558-12.729V66.77h11.266v27.089c0,2.811,0.793,4.933,2.38,6.364
		c1.303,1.205,2.946,1.807,4.93,1.807c2.04,0,3.713-0.602,5.016-1.807c1.586-1.432,2.38-3.554,2.38-6.364V66.77h11.266V111.576z"/>
	<path clip-path="url(#SVGID_2_)" fill="#D74D48" d="M422.433,97.473c0,4.76-1.836,8.428-5.504,11.008
		c-3.44,2.408-7.942,3.611-13.502,3.611c-4.186,0-7.598-0.374-10.234-1.117c-3.326-0.976-6.278-2.752-8.858-5.332l7.31-7.312
		c2.809,2.812,6.794,4.215,11.954,4.215c5.274,0,7.912-1.549,7.912-4.644c0-2.465-1.578-3.841-4.73-4.128l-7.052-0.689
		c-8.716-0.858-13.072-5.044-13.072-12.555c0-4.472,1.748-8.027,5.246-10.664c3.21-2.409,7.224-3.612,12.04-3.612
		c7.683,0,13.386,1.749,17.114,5.245l-6.88,6.967c-2.236-2.007-5.706-3.011-10.406-3.011c-4.244,0-6.364,1.435-6.364,4.301
		c0,2.292,1.548,3.583,4.644,3.869l7.052,0.689C417.988,85.174,422.433,89.561,422.433,97.473"/>
	<path clip-path="url(#SVGID_2_)" fill="#D74D48" d="M460.873,105.986c-3.898,4.07-8.829,6.105-14.792,6.105
		c-5.447,0-9.89-1.548-13.329-4.644c-4.473-4.014-6.708-10.118-6.708-18.317c0-8.199,2.235-14.277,6.708-18.233
		c3.439-3.096,7.882-4.643,13.329-4.643c6.021,0,10.95,2.006,14.792,6.019l-7.541,7.568c-2.172-2.35-4.569-3.526-7.196-3.526
		c-2.629,0-4.756,1.004-6.385,3.01c-1.629,2.008-2.441,5.275-2.441,9.805c0,4.586,0.813,7.883,2.441,9.889
		c1.629,2.009,3.756,3.011,6.385,3.011c2.627,0,5.024-1.175,7.196-3.525L460.873,105.986z"/>
	<path clip-path="url(#SVGID_2_)" fill="#D74D48" d="M502.927,111.576h-10.922v-4.128c-2.924,3.096-6.651,4.645-11.18,4.645
		c-4.416,0-7.941-1.319-10.578-3.956c-3.04-3.039-4.558-7.281-4.558-12.729V66.77h11.266v27.089c0,2.811,0.793,4.933,2.38,6.364
		c1.304,1.205,2.946,1.807,4.931,1.807c2.039,0,3.713-0.602,5.016-1.807c1.586-1.432,2.38-3.554,2.38-6.364V66.77h11.266V111.576z"
		/>
	<path clip-path="url(#SVGID_2_)" fill="#D74D48" d="M530.963,111.576H524.6c-4.3,0-7.626-1.348-9.977-4.042
		c-2.063-2.351-3.096-5.274-3.096-8.771V50.345h11.266v47.729c0,2.694,1.306,4.042,3.914,4.042h4.256V111.576z"/>
	<polygon clip-path="url(#SVGID_2_)" fill="#0FAAFF" points="576.715,61.008 560.719,61.008 560.719,111.575 548.765,111.575 
		548.765,61.008 532.769,61.008 532.769,50.344 576.715,50.344 	"/>
	<path clip-path="url(#SVGID_2_)" fill="#0FAAFF" d="M618.941,92.655h-28.036c0,2.983,0.873,5.391,2.623,7.226
		c1.748,1.835,4.141,2.752,7.181,2.752c3.956,0,7.338-1.404,10.148-4.215l6.794,6.621c-2.466,2.467-4.874,4.216-7.225,5.246
		c-2.695,1.204-5.964,1.808-9.804,1.808c-13.818,0-20.726-7.654-20.726-22.962c0-7.167,1.806-12.815,5.418-16.942
		c3.496-3.957,8.197-5.934,14.104-5.934c6.076,0,10.893,2.035,14.448,6.105c3.382,3.9,5.074,9.002,5.074,15.309V92.655z
		 M607.934,85.002c-0.059-1.834-0.402-3.439-1.032-4.815c-1.376-3.096-3.87-4.645-7.482-4.645s-6.105,1.549-7.481,4.645
		c-0.633,1.376-0.977,2.981-1.032,4.815H607.934z"/>
	<path clip-path="url(#SVGID_2_)" fill="#0FAAFF" d="M658.414,105.986c-3.898,4.07-8.83,6.105-14.792,6.105
		c-5.448,0-9.89-1.548-13.33-4.644c-4.472-4.014-6.708-10.118-6.708-18.317c0-8.199,2.236-14.277,6.708-18.233
		c3.44-3.096,7.882-4.643,13.33-4.643c6.021,0,10.95,2.006,14.792,6.019l-7.541,7.568c-2.172-2.35-4.57-3.526-7.197-3.526
		c-2.629,0-4.756,1.004-6.385,3.01c-1.628,2.008-2.441,5.275-2.441,9.805c0,4.586,0.813,7.883,2.441,9.889
		c1.629,2.009,3.756,3.011,6.385,3.011c2.627,0,5.025-1.175,7.197-3.525L658.414,105.986z"/>
	<path clip-path="url(#SVGID_2_)" fill="#0FAAFF" d="M700.553,111.576h-11.266V84.228c0-2.752-0.766-4.816-2.295-6.192
		c-1.303-1.146-2.945-1.72-4.929-1.72s-3.598,0.574-4.843,1.72c-1.53,1.434-2.296,3.498-2.296,6.192v27.349h-11.266V50.345h11.266
		v20.553c3.029-3.095,6.6-4.643,10.715-4.643c4.741,0,8.456,1.548,11.142,4.643c2.514,2.924,3.771,6.824,3.771,11.697V111.576z"/>
	<path clip-path="url(#SVGID_2_)" fill="#0FAAFF" d="M770.985,80.702c0,6.824-0.172,11.296-0.516,13.417
		c-0.746,4.701-2.638,8.571-5.676,11.609c-3.9,3.9-9.288,5.849-16.168,5.849h-22.103V50.345h22.103
		c6.88,0,12.268,1.949,16.168,5.847c3.038,3.04,4.93,6.823,5.676,11.352C770.813,69.608,770.985,73.994,770.985,80.702
		 M759.031,80.702c0-4.93-0.144-8.398-0.43-10.405c-0.344-2.351-1.062-4.185-2.15-5.505c-2.063-2.522-5.046-3.783-8.943-3.783h-9.03
		v39.903h9.03c3.897,0,6.88-1.261,8.943-3.784c1.089-1.318,1.807-3.238,2.15-5.763C758.888,89.246,759.031,85.689,759.031,80.702"/>
	<polygon clip-path="url(#SVGID_2_)" fill="#0FAAFF" points="816.91,111.576 803.494,111.576 795.237,98.16 787.067,111.576 
		773.651,111.576 789.132,88.7 774.254,66.77 787.67,66.77 795.237,79.584 802.892,66.77 816.308,66.77 801.43,88.7 	"/>
</g>
</svg>
